<svg width="24" height="24" viewBox="0 0 24 24"   xmlns="http://www.w3.org/2000/svg">
<path fill-rule="evenodd" clip-rule="evenodd" d="M7.25001 4.664C8.12001 3.367 9.62301 2 12 2C14.377 2 15.88 3.367 16.75 4.664C17.3246 5.53512 17.7426 6.49997 17.985 7.515L19.52 15.429C19.6042 15.8633 19.5913 16.3108 19.4823 16.7395C19.3733 17.1682 19.1708 17.5675 18.8893 17.9087C18.6079 18.25 18.2544 18.5248 17.8543 18.7135C17.4542 18.9021 17.0174 19 16.575 19H7.42501C6.98266 19 6.54579 18.9021 6.14569 18.7135C5.74558 18.5248 5.39215 18.25 5.11071 17.9087C4.82927 17.5675 4.62677 17.1682 4.51774 16.7395C4.4087 16.3108 4.39582 15.8633 4.48001 15.429L6.01501 7.515C6.25732 6.49962 6.67528 5.53543 7.25001 4.664Z" fill="black"/>
<path fill-rule="evenodd" clip-rule="evenodd" d="M8.51404 20C8.76604 20.48 9.15204 20.983 9.73704 21.367C10.347 21.767 11.113 22 12.047 22C12.98 22 13.747 21.767 14.357 21.367C14.942 20.983 15.327 20.481 15.58 20H8.51404Z" fill="black"/>
<path fill-rule="evenodd" clip-rule="evenodd" d="M17.293 2.29303C17.1055 2.48056 17.0002 2.73487 17.0002 3.00003C17.0002 3.26519 17.1055 3.5195 17.293 3.70703C18.119 4.53303 18.555 5.34303 19.03 7.24303C19.096 7.49863 19.2603 7.71778 19.4872 7.85268C19.7141 7.98757 19.9852 8.02728 20.2412 7.96313C20.4973 7.89898 20.7176 7.73618 20.8541 7.51024C20.9907 7.2843 21.0323 7.01355 20.97 6.75703C20.445 4.65703 19.88 3.46703 18.707 2.29303C18.5195 2.10556 18.2651 2.00024 18 2.00024C17.7348 2.00024 17.4805 2.10556 17.293 2.29303ZM6.70698 2.29303C6.89445 2.48056 6.99976 2.73487 6.99976 3.00003C6.99976 3.26519 6.89445 3.5195 6.70698 3.70703C5.88098 4.53303 5.44498 5.34303 4.96998 7.24303C4.904 7.49863 4.73964 7.71778 4.51273 7.85268C4.28582 7.98757 4.01477 8.02728 3.75871 7.96313C3.50264 7.89898 3.28232 7.73618 3.14581 7.51024C3.0093 7.2843 2.96766 7.01355 3.02998 6.75703C3.55498 4.65703 4.11998 3.46703 5.29298 2.29303C5.4805 2.10556 5.73481 2.00024 5.99998 2.00024C6.26514 2.00024 6.51945 2.10556 6.70698 2.29303Z" fill="black"/>
<circle cx="5" cy="14" r="4" fill="#FF0000"/>
</svg>
